PSF_ID_stride4.mot
nRows=12
nColumns=38

name PSF_ID_stride4.mot
datacolumns 38
datarows 12
range 2.3550000000 2.4100000000
endheader
time	pelvis_tilt_moment	pelvis_list_moment	pelvis_rotation_moment	pelvis_tx_force	pelvis_ty_force	pelvis_tz_force	hip_flexion_r_moment	hip_adduction_r_moment	hip_rotation_r_moment	knee_angle_r_moment	ankle_angle_r_moment	subtalar_angle_r_moment	mtp_angle_r_moment	hip_flexion_l_moment	hip_adduction_l_moment	hip_rotation_l_moment	knee_angle_l_moment	ankle_angle_l_moment	subtalar_angle_l_moment	mtp_angle_l_moment	lumbar_extension_moment	lumbar_bending_moment	lumbar_rotation_moment	arm_flex_r_moment	arm_add_r_moment	arm_rot_r_moment	elbow_flex_r_moment	pro_sup_r_moment	wrist_flex_r_moment	wrist_dev_r_moment	arm_flex_l_moment	arm_add_l_moment	arm_rot_l_moment	elbow_flex_l_moment	pro_sup_l_moment	wrist_flex_l_moment	wrist_dev_l_moment
        2.3550000000	       -1.3194680865	      -19.0050880120	       10.8683171804	      113.2267566062	      -67.4874078175	     -107.7996937174	        2.9651185796	      -60.8721135356	       28.6956192489	        8.6368150983	     -202.5893846188	       48.4476123266	       -0.0399584525	       -5.5685324033	        4.1290398235	       -3.3615423839	       -0.9266762663	        2.1993520976	       -0.1090209022	        0.1427934694	        6.7614050202	        8.5421200327	      -35.4884581640	        0.9094706559	       -3.0441807024	       -3.7403685991	        4.9331397460	       -0.2143846421	       -0.3045127952	       -0.4869307057	        7.5242382093	        7.1482527343	        4.5922267050	        4.9358631204	        0.0294157486	        0.5615869782	       -0.3060405575	
        2.3600000000	        4.8358089372	      -26.7252905568	        6.2768061165	       88.9511197544	      -78.2885564174	     -103.1830507184	        2.7475460320	      -56.7167199255	       26.8479242937	        1.3300481023	     -190.2393817205	       44.8963763620	       -0.0488372082	       -7.2203103407	        2.2016171530	       -3.1025092328	       -1.2151376558	        2.2651346345	       -0.1529726401	        0.1447369731	       -0.5230094723	        3.2722855596	      -38.4878361816	        0.2658058347	       -3.0896476218	       -3.8795504514	        4.2725668598	       -0.2094089981	       -0.3408825621	       -0.4326410175	        7.5670778819	        6.7466779543	        4.5908131289	        4.3917319201	        0.0433640948	        0.5597950910	       -0.2520998378	
        2.3650000000	        5.8595038770	      -29.0217902106	       -0.0179340104	       59.8504132287	      -81.2547991382	      -93.1681953255	        4.7917054665	      -47.4425389245	       22.8670532223	       -3.7895759719	     -177.1320569622	       41.2037979624	       -0.0571428696	       -9.5398157844	        0.1802897323	       -2.6463641692	       -1.7611599368	        2.3154268238	       -0.2088351377	        0.1460709897	       -5.7205294046	       -0.5993403297	      -40.3879206808	       -0.3800490002	       -3.0708555337	       -3.9040552289	        3.6360939978	       -0.2009568277	       -0.3621882986	       -0.3785974701	        7.5055726794	        6.2141084593	        4.4919013036	        3.8806113949	        0.0539176627	        0.5469308676	       -0.2042803926	
        2.3700000000	        1.5165291137	      -28.2284102708	       -7.7120233496	       32.0225575067	      -77.2530536370	      -79.3669887772	        9.1877398919	      -34.5291929701	       16.9881106520	       -7.4873448758	     -163.4843755437	       37.5632785249	       -0.0637249193	      -12.5015289464	       -1.3348590899	       -2.1435309570	       -2.5594194880	        2.3477045096	       -0.2692785986	        0.1467736488	       -8.6395491205	       -2.3017724196	      -41.1670245892	       -1.0528103927	       -2.9025143267	       -3.8072573104	        3.0209141796	       -0.1894033744	       -0.3700520771	       -0.3247431025	        7.1782497390	        5.5859185605	        4.2898994238	        3.4044834025	        0.0614854096	        0.5245012082	       -0.1624897435	
        2.3750000000	       -5.0843797491	      -25.0196515281	      -15.6201764971	        9.9149674248	      -63.2115081097	      -59.5277361247	       13.4733698735	      -21.1591336632	       10.4654741151	      -10.7756780106	     -148.7941835033	       34.0090780133	       -0.0677807922	      -15.8850968625	       -2.0074860445	       -1.6819250769	       -3.5481003175	        2.3653879473	       -0.3277919530	        0.1470123582	       -9.4397754490	       -1.4589484313	      -40.8519015675	       -1.7709417240	       -2.6496174111	       -3.5858879011	        2.4264461423	       -0.1750380520	       -0.3636293090	       -0.2713135243	        6.6389914257	        4.8840724601	        4.0113774212	        2.9645255560	        0.0667684936	        0.4944511387	       -0.1263970630	
        2.3800000000	       -9.0786347947	      -21.2015776768	      -20.8892510090	       -3.2594085869	      -45.0624447276	      -35.2797680273	       16.4625445478	      -11.5561803027	        5.9655009983	      -14.1940535383	     -132.9278006856	       30.3628820283	       -0.0674038591	      -19.2188282038	       -1.7682591577	       -1.3857754801	       -4.5659215295	        2.3725552361	       -0.3746834264	        0.1469705962	       -8.9203099779	        0.7200150234	      -39.9420386125	       -2.5075371200	       -2.3124980955	       -3.2726252621	        1.8563768544	       -0.1583940851	       -0.3485962143	       -0.2188496385	        5.9469733769	        4.1130124868	        3.6664175219	        2.5594474025	        0.0690892762	        0.4580012363	       -0.0959778117	
        2.3850000000	       -9.8295964573	      -16.3863111402	      -22.4874720435	       -9.6812163191	      -27.4990503211	       -9.3480806280	       18.6866056886	       -6.7724606968	        4.5649074198	      -17.6521748962	     -116.1387568890	       26.4993778968	       -0.0618581743	      -22.0550279763	       -0.2189386334	       -1.3063651971	       -5.4693947202	        2.3770724736	       -0.3991756141	        0.1466609537	       -6.4741216585	        4.7249665391	      -37.9698099576	       -3.2270212513	       -1.8697662779	       -2.8563163410	        1.3136504083	       -0.1392861120	       -0.3198921908	       -0.1675864708	        5.1220477160	        3.2598803819	        3.2435030446	        2.1852234322	        0.0693965323	        0.4141090059	       -0.0708949781	
        2.3900000000	       -6.8835258664	       -8.7629263965	      -21.8998997584	      -12.9618198609	      -18.2855549611	       10.7758256919	       21.2957742981	       -5.0720059158	        4.9275367594	      -20.4459864661	      -99.3165544705	       22.3707426221	       -0.0485202404	      -23.9472651899	        2.5618138449	       -1.4420745954	       -6.1006468909	        2.3827602244	       -0.4044018582	        0.1461289625	       -3.3186141561	        8.7916139364	      -35.3661580812	       -3.8687831542	       -1.3254846040	       -2.3593132996	        0.7949078859	       -0.1180380721	       -0.2824149704	       -0.1173263936	        4.2476811898	        2.3244233812	        2.7472505813	        1.8262680024	        0.0671039388	        0.3630166231	       -0.0496798331	
        2.3950000000	       -1.8940823138	        4.1823694807	      -20.3873173182	      -16.8859264667	      -20.9078866836	       19.7781686603	       26.8517051530	       -3.9849475863	        5.8792523845	      -21.6983630127	      -83.0737863074	       18.2596292406	       -0.0270645367	      -24.8256344823	        6.4006808175	       -1.8829880385	       -6.4193053093	        2.3863023049	       -0.3733663579	        0.1449601573	       -0.2133288466	       12.0144622209	      -32.1988944130	       -4.3819267577	       -0.6884794542	       -1.7976361353	        0.2920623583	       -0.0946884967	       -0.2379050954	       -0.0673196506	        3.3758311852	        1.3107789483	        2.1805520991	        1.4604654694	        0.0624461556	        0.3044421242	       -0.0303971768	
        2.4000000000	        3.0607636852	       22.5696435932	      -21.1432171655	      -24.5708788431	      -38.7553522040	       13.5030746553	       36.2143751959	       -0.1492434718	        4.7907308546	      -20.5184457058	      -67.6118082899	       14.9470162933	        0.0027453500	      -24.8676227589	       11.0651229645	       -2.5286982695	       -6.5585599502	        2.3748499361	       -0.3104891968	        0.1425816223	        2.2026748566	       13.1316234443	      -28.5711535186	       -4.7328213149	        0.0127440472	       -1.1944630871	       -0.2104459975	       -0.0692972648	       -0.1889348629	       -0.0161134507	        2.5309323495	        0.2406722310	        1.5582406552	        1.0565147765	        0.0562318600	        0.2389749874	       -0.0098518307	
        2.4050000000	        8.3620023647	       41.0088122247	      -22.9893372205	      -35.2680694495	      -70.3552174759	        1.7355151733	       46.0561613410	        5.5609512184	        2.5255201215	      -18.8008951691	      -53.5422335137	       12.6836284807	        0.0392594002	      -25.0079792430	       16.0820223862	       -3.2344826916	       -6.8141802271	        2.3438665120	       -0.2230204364	        0.1388072032	        3.4402074509	       13.1082955710	      -24.6654088418	       -4.9577180211	        0.7300720626	       -0.5804127863	       -0.7181450565	       -0.0425973568	       -0.1385106745	        0.0366226551	        1.6965751694	       -0.8376945414	        0.9152989953	        0.6080104238	        0.0493288708	        0.1696957308	        0.0135978910	
        2.4100000000	       14.4039116565	       53.8025196177	      -25.1526801040	      -48.5336515368	     -112.1394912893	       -9.8564772751	       51.8860868276	       11.3056632810	        0.0342330890	      -17.8431972229	      -41.4946019155	       11.2393852951	        0.0821025023	      -25.8267572115	       20.9822605801	       -3.8196569578	       -7.6446604653	        2.2807704555	       -0.1207702771	        0.1332488611	        3.7664658856	       10.6290529839	      -20.6122353641	       -5.0865469033	        1.4202379728	        0.0172128795	       -1.2303205646	       -0.0151910707	       -0.0891714127	        0.0909047317	        0.8653251169	       -1.8774383981	        0.2828292169	        0.1044442243	        0.0425344252	        0.0991383022	        0.0418704937	
